<?xml version="1.0" standalone="no"?>
<!DOCTYPE svg PUBLIC "-//W3C//DTD SVG 20010904//EN" "http://www.w3.org/TR/2001/REC-SVG-20010904/DTD/svg10.dtd">
<svg version="1.0" xmlns="http://www.w3.org/2000/svg" width="700pt" height="700pt" viewBox="0 0 700 700" preserveAspectRatio="xMidYMid meet">
  <g transform="translate(0.000000,700.000000) scale(0.100000,-0.100000)" fill="#1a73e8" stroke="none">
    <path d="M3280 6989 c-386 -40 -789 -171 -1135 -369 -523 -299 -934 -747
    -1185 -1290 -132 -286 -210 -565 -249 -885 -21 -177 -21 -513 0 -690 84
    -706 387 -1337 873 -1820 486 -486 1117 -789 1823 -873 177 -21 513 -21 690
    0 706 84 1337 387 1820 873 486 486 789 1117 873 1823 21 177 21 513 0 690
    -84 706 -387 1337 -873 1820 -486 486 -1117 789 -1823 873 -122 14 -458 26
    -535 18z m445 -914 c584 -68 1101 -356 1445 -805 252 -329 397 -710 432
    -1130 14 -169 -1 -427 -35 -590 -133 -637 -555 -1189 -1147 -1500 -즐 -132
    -565 -210 -885 -249 -177 -21 -513 -21 -690 0 -706 84 -1337 387 -1820 873
    -486 486 -789 1117 -873 1823 -21 177 -21 513 0 690 84 706 387 1337 873
    1820 486 486 1117 789 1823 873 122 14 458 26 535 18z"/>
    <path d="M3365 5509 c-121 -17 -287 -81 -400 -154 -287 -186 -459 -472 -492
    -815 -32 -334 97 -669 351 -910 176 -166 378 -265 612 -300 117 -17 323 -7
    432 21 394 102 699 407 801 801 28 109 38 315 21 432 -35 234 -134 436 -300
    612 -241 254 -576 383 -910 351 -63 -6 -143 -19 -177 -29z"/>
  </g>
</svg>
