<?xml version="1.0" encoding="UTF-8" standalone="no"?>
<svg width="512" height="512" viewBox="0 0 512 512" fill="none" xmlns="http://www.w3.org/2000/svg">
  <!-- Background Circle -->
  <circle cx="256" cy="256" r="248" fill="#1a73e8" stroke="#ffffff" stroke-width="16"/>
  
  <!-- Padel Racket -->
  <g transform="translate(256 256) rotate(-30) translate(-256 -256)">
    <!-- Racket Handle -->
    <rect x="220" y="280" width="72" height="160" rx="20" fill="#ffffff"/>
    
    <!-- Racket Head -->
    <path d="M160 120C160 53.7258 214.726 0 281 0H281C347.274 0 402 53.7258 402 120V280C402 346.274 347.274 400 281 400H281C214.726 400 160 346.274 160 280V120Z" fill="#ffffff"/>
    
    <!-- Strings -->
    <g stroke="#1a73e8" stroke-width="8">
      <!-- Vertical Strings -->
      <line x1="200" y1="80" x2="200" y2="360"/>
      <line x1="240" y1="80" x2="240" y2="360"/>
      <line x1="280" y1="80" x2="280" y2="360"/>
      <line x1="320" y1="80" x2="320" y2="360"/>
      <line x1="360" y1="80" x2="360" y2="360"/>
      
      <!-- Horizontal Strings -->
      <line x1="160" y1="120" x2="400" y2="120"/>
      <line x1="160" y1="160" x2="400" y2="160"/>
      <line x1="160" y1="200" x2="400" y2="200"/>
      <line x1="160" y1="240" x2="400" y2="240"/>
      <line x1="160" y1="280" x2="400" y2="280"/>
      <line x1="160" y1="320" x2="400" y2="320"/>
    </g>
  </g>
  
  <!-- Lightning Bolt -->
  <path d="M340 140L220 270H300L180 400L340 230H260L340 140Z" fill="#ffffff"/>
</svg>
